# Blender 5.1.2
# www.blender.org
mtllib Slot_parts.mtl
o automat_low_Material.001_0.042
v -0.115648 0.100243 -0.098843
v -0.036937 0.088288 -0.094940
v -0.036937 0.100243 -0.098843
v -0.115648 0.088288 -0.094940
v -0.115648 0.112676 -0.100161
v -0.036937 0.112676 -0.100161
v -0.036937 0.077271 -0.088603
v -0.115648 0.077271 -0.088603
v -0.036937 0.067614 -0.080074
v -0.115648 0.067614 -0.080074
v -0.036937 0.059688 -0.069682
v -0.115648 0.059688 -0.069682
v -0.036937 0.053799 -0.057826
v -0.115648 0.053799 -0.057826
v -0.036937 0.050173 -0.044961
v -0.115648 0.050173 -0.044961
v -0.036937 0.048948 -0.031582
v -0.115648 0.048948 -0.031582
v -0.036937 0.050173 -0.018203
v -0.115648 0.050173 -0.018203
v -0.036937 0.053799 -0.005338
v -0.115648 0.053799 -0.005338
v -0.036937 0.059688 0.006518
v -0.115648 0.059688 0.006518
v -0.036937 0.067614 0.016910
v -0.115648 0.067614 0.016910
v -0.036937 0.077271 0.025439
v -0.115648 0.077271 0.025439
v -0.036937 0.088288 0.031776
v -0.115648 0.088288 0.031776
v -0.036937 0.100243 0.035678
v -0.115648 0.100243 0.035678
v -0.036937 0.112676 0.036996
v -0.115648 0.112676 0.036996
v -0.115648 0.125108 0.035678
v -0.036937 0.125108 0.035678
v -0.036937 0.137063 0.031776
v -0.115648 0.137063 0.031776
v -0.036937 0.148081 0.025439
v -0.115648 0.148081 0.025439
v -0.036937 0.157738 0.016910
v -0.115648 0.157738 0.016910
v -0.036937 0.165663 0.006518
v -0.115648 0.165663 0.006518
v -0.036937 0.171552 -0.005338
v -0.115648 0.171552 -0.005338
v -0.036937 0.175179 -0.018203
v -0.115648 0.175179 -0.018203
v -0.036937 0.176403 -0.031582
v -0.036937 0.175179 -0.044961
v -0.115648 0.176403 -0.031582
v -0.115648 0.175179 -0.044961
v -0.036937 0.171552 -0.057826
v -0.115648 0.171552 -0.057826
v -0.036937 0.165663 -0.069682
v -0.115648 0.165663 -0.069682
v -0.036937 0.157738 -0.080074
v -0.115648 0.157738 -0.080074
v -0.036937 0.148081 -0.088603
v -0.115648 0.148081 -0.088603
v -0.036937 0.137063 -0.094940
v -0.115648 0.137063 -0.094940
v -0.036937 0.125108 -0.098843
v -0.115648 0.125108 -0.098843
v -0.036937 0.112676 -0.100161
v -0.115648 0.112676 -0.100161
vn -0.0000 -0.2090 -0.9779
vn -0.0000 -0.4066 -0.9136
vn -0.0000 -0.0001 -1.0000
vn -0.0000 -0.5832 -0.8123
vn -0.0000 -0.7321 -0.6812
vn -0.0000 -0.8492 -0.5280
vn -0.0000 -0.9331 -0.3596
vn -0.0000 -0.9833 -0.1820
vn -0.0000 -1.0000 -0.0000
vn -0.0000 -0.9833 0.1820
vn -0.0000 -0.9331 0.3596
vn -0.0000 -0.8492 0.5280
vn -0.0000 -0.7321 0.6812
vn -0.0000 -0.5832 0.8123
vn -0.0000 -0.4066 0.9136
vn -0.0000 -0.2090 0.9779
vn -0.0000 -0.0000 1.0000
vn -0.0000 0.2090 0.9779
vn -0.0000 0.4066 0.9136
vn -0.0000 0.5832 0.8123
vn -0.0000 0.7321 0.6812
vn -0.0000 0.8492 0.5280
vn -0.0000 0.9331 0.3597
vn -0.0000 0.9833 0.1820
vn -0.0000 1.0000 -0.0000
vn -0.0000 0.9833 -0.1820
vn -0.0000 0.9331 -0.3597
vn -0.0000 0.8492 -0.5280
vn -0.0000 0.7321 -0.6812
vn -0.0000 0.5832 -0.8123
vn -0.0000 0.4066 -0.9136
vn -0.0000 0.2090 -0.9779
vn -0.0000 0.0001 -1.0000
vt 0.199384 0.098560
vt 0.164931 0.104065
vt 0.199384 0.104065
vt 0.164931 0.098560
vt 0.199384 0.093088
vt 0.164931 0.093088
vt 0.164931 0.109628
vt 0.199384 0.109628
vt 0.164931 0.115268
vt 0.199384 0.115268
vt 0.164931 0.120988
vt 0.199384 0.120988
vt 0.164931 0.126783
vt 0.199384 0.126783
vt 0.164931 0.132633
vt 0.199384 0.132633
vt 0.164931 0.138514
vt 0.199384 0.138514
vt 0.164931 0.144394
vt 0.199384 0.144394
vt 0.164931 0.150245
vt 0.199384 0.150245
vt 0.164931 0.156039
vt 0.199384 0.156039
vt 0.164931 0.161760
vt 0.199384 0.161760
vt 0.164931 0.167399
vt 0.199383 0.167399
vt 0.164931 0.172962
vt 0.199383 0.172962
vt 0.164931 0.178467
vt 0.199383 0.178467
vt 0.164931 0.183939
vt 0.199383 0.183939
vt 0.164931 0.189412
vt 0.199383 0.189412
vt 0.164931 0.194916
vt 0.199383 0.194916
vt 0.164931 0.200479
vt 0.199384 0.200479
vt 0.164931 0.206119
vt 0.199384 0.206119
vt 0.164931 0.211839
vt 0.199384 0.211839
vt 0.164931 0.217634
vt 0.199384 0.217634
vt 0.164931 0.223484
vt 0.199384 0.223484
vt 0.164931 0.229365
vt 0.199384 0.229365
vt 0.164931 0.235245
vt 0.199384 0.235245
vt 0.164931 0.241096
vt 0.199384 0.241096
vt 0.164931 0.246890
vt 0.199384 0.246890
vt 0.164931 0.252611
vt 0.199384 0.252611
vt 0.164931 0.258250
vt 0.199384 0.258250
vt 0.164931 0.263814
vt 0.199384 0.263814
vt 0.164931 0.269318
vt 0.199384 0.269318
vt 0.164931 0.274791
vt 0.199384 0.274790
s 1
usemtl Material.006
f 1/1/1 2/2/2 4/3/2
f 1/1/1 3/4/1 2/2/2
f 5/5/3 3/4/1 1/1/1
f 5/5/3 6/6/3 3/4/1
f 4/3/2 2/2/2 7/7/4
f 4/3/2 7/7/4 8/8/4
f 8/8/4 7/7/4 9/9/5
f 8/8/4 9/9/5 10/10/5
f 10/10/5 9/9/5 11/11/6
f 10/10/5 11/11/6 12/12/6
f 12/12/6 11/11/6 13/13/7
f 12/12/6 13/13/7 14/14/7
f 14/14/7 13/13/7 15/15/8
f 14/14/7 15/15/8 16/16/8
f 16/16/8 15/15/8 17/17/9
f 16/16/8 17/17/9 18/18/9
f 18/18/9 17/17/9 19/19/10
f 18/18/9 19/19/10 20/20/10
f 20/20/10 19/19/10 21/21/11
f 20/20/10 21/21/11 22/22/11
f 22/22/11 21/21/11 23/23/12
f 22/22/11 23/23/12 24/24/12
f 24/24/12 23/23/12 25/25/13
f 24/24/12 25/25/13 26/26/13
f 26/26/13 25/25/13 27/27/14
f 26/26/13 27/27/14 28/28/14
f 28/28/14 27/27/14 29/29/15
f 28/28/14 29/29/15 30/30/15
f 30/30/15 29/29/15 31/31/16
f 30/30/15 31/31/16 32/32/16
f 32/32/16 31/31/16 33/33/17
f 32/32/16 33/33/17 34/34/17
f 34/34/17 36/35/18 35/36/18
f 34/34/17 33/33/17 36/35/18
f 35/36/18 36/35/18 37/37/19
f 35/36/18 37/37/19 38/38/19
f 38/38/19 37/37/19 39/39/20
f 40/40/20 39/39/20 41/41/21
f 38/38/19 39/39/20 40/40/20
f 42/42/21 41/41/21 43/43/22
f 40/40/20 41/41/21 42/42/21
f 44/44/22 43/43/22 45/45/23
f 42/42/21 43/43/22 44/44/22
f 44/44/22 45/45/23 46/46/23
f 46/46/23 45/45/23 47/47/24
f 48/48/24 47/47/24 49/49/25
f 46/46/23 47/47/24 48/48/24
f 51/50/25 49/49/25 50/51/26
f 48/48/24 49/49/25 51/50/25
f 51/50/25 50/51/26 52/52/26
f 52/52/26 53/53/27 54/54/27
f 52/52/26 50/51/26 53/53/27
f 54/54/27 53/53/27 55/55/28
f 54/54/27 55/55/28 56/56/28
f 56/56/28 55/55/28 57/57/29
f 56/56/28 57/57/29 58/58/29
f 58/58/29 57/57/29 59/59/30
f 58/58/29 59/59/30 60/60/30
f 60/60/30 59/59/30 61/61/31
f 60/60/30 61/61/31 62/62/31
f 62/62/31 61/61/31 63/63/32
f 62/62/31 63/63/32 64/64/32
f 64/64/32 63/63/32 65/65/33
f 64/64/32 65/65/33 66/66/33
o automat_low_Material.001_0.047
v -0.036937 0.148081 -0.088603
v -0.036937 0.131572 -0.051917
v -0.036937 0.157738 -0.080074
v -0.036937 0.127522 -0.055493
v -0.036937 0.137063 -0.094940
v -0.036937 0.122902 -0.058151
v -0.036937 0.125108 -0.098843
v -0.036937 0.117889 -0.059788
v -0.036937 0.112676 -0.100161
v -0.036937 0.112676 -0.060340
v -0.036937 0.100243 -0.098843
v -0.036937 0.088288 -0.094940
v -0.036937 0.107462 -0.059788
v -0.036937 0.102449 -0.058151
v -0.036937 0.077271 -0.088603
v -0.036937 0.097829 -0.055493
v -0.036937 0.067614 -0.080074
v -0.036937 0.093779 -0.051917
v -0.036937 0.059688 -0.069682
v -0.036937 0.090456 -0.047559
v -0.036937 0.053799 -0.057826
v -0.036937 0.087986 -0.042587
v -0.036937 0.050173 -0.044961
v -0.036937 0.086465 -0.037193
v -0.036937 0.048948 -0.031582
v -0.036937 0.085952 -0.031582
v -0.036937 0.050173 -0.018203
v -0.036937 0.086465 -0.025972
v -0.036937 0.053799 -0.005338
v -0.036937 0.087986 -0.020577
v -0.036937 0.059688 0.006518
v -0.036937 0.090456 -0.015605
v -0.036937 0.067614 0.016910
v -0.036937 0.093779 -0.011247
v -0.036937 0.077271 0.025439
v -0.036937 0.097829 -0.007671
v -0.036937 0.088288 0.031776
v -0.036937 0.102449 -0.005013
v -0.036937 0.100243 0.035678
v -0.036937 0.107462 -0.003377
v -0.036937 0.112676 0.036996
v -0.036937 0.112676 -0.002824
v -0.036937 0.125108 0.035678
v -0.036937 0.117889 -0.003377
v -0.036937 0.137063 0.031776
v -0.036937 0.122902 -0.005013
v -0.036937 0.148081 0.025439
v -0.036937 0.127522 -0.007671
v -0.036937 0.157738 0.016910
v -0.036937 0.131572 -0.011247
v -0.036937 0.165663 0.006518
v -0.036937 0.134895 -0.015605
v -0.036937 0.171552 -0.005338
v -0.036937 0.137365 -0.020577
v -0.036937 0.175179 -0.018203
v -0.036937 0.138886 -0.025972
v -0.036937 0.176403 -0.031582
v -0.036937 0.139399 -0.031582
v -0.036937 0.175179 -0.044961
v -0.036937 0.138886 -0.037193
v -0.036937 0.171552 -0.057826
v -0.036937 0.137365 -0.042587
v -0.036937 0.165663 -0.069682
v -0.036937 0.134895 -0.047559
vn 1.0000 -0.0000 -0.0000
vt 0.850744 0.157722
vt 0.859403 0.173054
vt 0.861026 0.171333
vt 0.846875 0.161824
vt 0.855293 0.154520
vt 0.862933 0.169991
vt 0.860348 0.152342
vt 0.865715 0.151271
vt 0.865053 0.169078
vt 0.871187 0.151350
vt 0.867304 0.168629
vt 0.876553 0.152574
vt 0.869598 0.168662
vt 0.871849 0.169175
vt 0.881609 0.154897
vt 0.873969 0.170149
vt 0.886158 0.158229
vt 0.875876 0.171546
vt 0.890027 0.162443
vt 0.877499 0.173313
vt 0.893067 0.167376
vt 0.878774 0.175382
vt 0.895161 0.172839
vt 0.879652 0.177673
vt 0.896229 0.178621
vt 0.880099 0.180098
vt 0.896229 0.184502
vt 0.880099 0.182564
vt 0.895161 0.190254
vt 0.879652 0.184976
vt 0.893067 0.195657
vt 0.878774 0.187241
vt 0.890027 0.200503
vt 0.877499 0.189274
vt 0.886158 0.204606
vt 0.875876 0.190994
vt 0.881609 0.207808
vt 0.873969 0.192337
vt 0.876553 0.209986
vt 0.871849 0.193250
vt 0.871187 0.211056
vt 0.869598 0.193699
vt 0.865715 0.210978
vt 0.867304 0.193666
vt 0.860348 0.209754
vt 0.865053 0.193153
vt 0.855293 0.207431
vt 0.862933 0.192179
vt 0.850744 0.204098
vt 0.861026 0.190781
vt 0.846875 0.199885
vt 0.859403 0.189014
vt 0.843835 0.194952
vt 0.858128 0.186946
vt 0.841741 0.189489
vt 0.857250 0.184655
vt 0.840673 0.183706
vt 0.856803 0.182230
vt 0.840673 0.177826
vt 0.856803 0.179764
vt 0.841741 0.172073
vt 0.857250 0.177352
vt 0.843835 0.166670
vt 0.858128 0.175086
s 1
usemtl Material.006
f 67/67/34 68/68/34 70/69/34
f 67/67/34 69/70/34 68/68/34
f 71/71/34 67/67/34 70/69/34
f 71/71/34 70/69/34 72/72/34
f 73/73/34 71/71/34 72/72/34
f 75/74/34 73/73/34 74/75/34
f 73/73/34 72/72/34 74/75/34
f 77/76/34 75/74/34 76/77/34
f 75/74/34 74/75/34 76/77/34
f 78/78/34 77/76/34 79/79/34
f 77/76/34 76/77/34 79/79/34
f 78/78/34 79/79/34 80/80/34
f 81/81/34 80/80/34 82/82/34
f 81/81/34 78/78/34 80/80/34
f 83/83/34 81/81/34 82/82/34
f 83/83/34 82/82/34 84/84/34
f 85/85/34 83/83/34 84/84/34
f 85/85/34 84/84/34 86/86/34
f 87/87/34 85/85/34 86/86/34
f 87/87/34 86/86/34 88/88/34
f 89/89/34 87/87/34 88/88/34
f 89/89/34 88/88/34 90/90/34
f 91/91/34 90/90/34 92/92/34
f 91/91/34 89/89/34 90/90/34
f 93/93/34 92/92/34 94/94/34
f 93/93/34 91/91/34 92/92/34
f 95/95/34 94/94/34 96/96/34
f 95/95/34 93/93/34 94/94/34
f 97/97/34 95/95/34 96/96/34
f 97/97/34 96/96/34 98/98/34
f 99/99/34 98/98/34 100/100/34
f 99/99/34 97/97/34 98/98/34
f 101/101/34 99/99/34 100/100/34
f 101/101/34 100/100/34 102/102/34
f 103/103/34 101/101/34 102/102/34
f 103/103/34 102/102/34 104/104/34
f 105/105/34 103/103/34 104/104/34
f 105/105/34 104/104/34 106/106/34
f 107/107/34 105/105/34 106/106/34
f 107/107/34 106/106/34 108/108/34
f 109/109/34 108/108/34 110/110/34
f 109/109/34 107/107/34 108/108/34
f 111/111/34 110/110/34 112/112/34
f 111/111/34 109/109/34 110/110/34
f 113/113/34 112/112/34 114/114/34
f 113/113/34 111/111/34 112/112/34
f 115/115/34 114/114/34 116/116/34
f 115/115/34 113/113/34 114/114/34
f 117/117/34 116/116/34 118/118/34
f 117/117/34 115/115/34 116/116/34
f 119/119/34 117/117/34 118/118/34
f 119/119/34 118/118/34 120/120/34
f 121/121/34 119/119/34 120/120/34
f 121/121/34 120/120/34 122/122/34
f 123/123/34 121/121/34 122/122/34
f 123/123/34 122/122/34 124/124/34
f 125/125/34 123/123/34 124/124/34
f 125/125/34 124/124/34 126/126/34
f 127/127/34 126/126/34 128/128/34
f 127/127/34 125/125/34 126/126/34
f 129/129/34 128/128/34 130/130/34
f 129/129/34 127/127/34 128/128/34
f 69/70/34 129/129/34 130/130/34
f 69/70/34 130/130/34 68/68/34
o automat_low_Material.001_0.048
v -0.115648 0.148081 0.025439
v -0.115648 0.131572 -0.011247
v -0.115648 0.157738 0.016910
v -0.115648 0.127522 -0.007671
v -0.115648 0.137063 0.031776
v -0.115648 0.122902 -0.005013
v -0.115648 0.125108 0.035678
v -0.115648 0.117889 -0.003377
v -0.115648 0.112676 0.036996
v -0.115648 0.112676 -0.002824
v -0.115648 0.100243 0.035678
v -0.115648 0.088288 0.031776
v -0.115648 0.107462 -0.003377
v -0.115648 0.102449 -0.005013
v -0.115648 0.077271 0.025439
v -0.115648 0.097829 -0.007671
v -0.115648 0.067614 0.016910
v -0.115648 0.093779 -0.011247
v -0.115648 0.059688 0.006518
v -0.115648 0.090456 -0.015605
v -0.115648 0.053799 -0.005338
v -0.115648 0.087986 -0.020577
v -0.115648 0.050173 -0.018203
v -0.115648 0.086465 -0.025972
v -0.115648 0.048948 -0.031582
v -0.115648 0.085952 -0.031582
v -0.115648 0.050173 -0.044961
v -0.115648 0.086465 -0.037193
v -0.115648 0.053799 -0.057826
v -0.115648 0.087986 -0.042587
v -0.115648 0.059688 -0.069682
v -0.115648 0.090456 -0.047559
v -0.115648 0.067614 -0.080074
v -0.115648 0.093779 -0.051917
v -0.115648 0.077271 -0.088603
v -0.115648 0.097829 -0.055493
v -0.115648 0.088288 -0.094940
v -0.115648 0.102449 -0.058151
v -0.115648 0.100243 -0.098843
v -0.115648 0.107462 -0.059788
v -0.115648 0.112676 -0.100161
v -0.115648 0.112676 -0.060340
v -0.115648 0.125108 -0.098843
v -0.115648 0.117889 -0.059788
v -0.115648 0.137063 -0.094940
v -0.115648 0.122902 -0.058151
v -0.115648 0.148081 -0.088603
v -0.115648 0.127522 -0.055493
v -0.115648 0.157738 -0.080074
v -0.115648 0.131572 -0.051917
v -0.115648 0.165663 -0.069682
v -0.115648 0.134895 -0.047559
v -0.115648 0.171552 -0.057826
v -0.115648 0.137365 -0.042587
v -0.115648 0.175179 -0.044961
v -0.115648 0.138886 -0.037193
v -0.115648 0.176403 -0.031582
v -0.115648 0.139399 -0.031582
v -0.115648 0.175179 -0.018203
v -0.115648 0.138886 -0.025972
v -0.115648 0.171552 -0.005338
v -0.115648 0.137365 -0.020577
v -0.115648 0.165663 0.006518
v -0.115648 0.134895 -0.015605
vn -1.0000 -0.0000 -0.0000
vt 0.855293 0.094695
vt 0.861026 0.111345
vt 0.862933 0.109947
vt 0.850744 0.098027
vt 0.860348 0.092372
vt 0.865715 0.091148
vt 0.865053 0.108973
vt 0.871187 0.091070
vt 0.867304 0.108460
vt 0.876553 0.092140
vt 0.869598 0.108427
vt 0.881609 0.094318
vt 0.871849 0.108876
vt 0.873969 0.109789
vt 0.886158 0.097520
vt 0.875876 0.111132
vt 0.890027 0.101623
vt 0.877499 0.112852
vt 0.893067 0.106469
vt 0.878774 0.114885
vt 0.895161 0.111872
vt 0.879652 0.117150
vt 0.896229 0.117624
vt 0.880100 0.119562
vt 0.896229 0.123505
vt 0.880099 0.122028
vt 0.895161 0.129287
vt 0.879652 0.124453
vt 0.893067 0.134750
vt 0.878774 0.126744
vt 0.890027 0.139683
vt 0.877499 0.128813
vt 0.886158 0.143897
vt 0.875876 0.130580
vt 0.881609 0.147229
vt 0.873969 0.131977
vt 0.876553 0.149552
vt 0.871849 0.132951
vt 0.871187 0.150776
vt 0.869598 0.133465
vt 0.865715 0.150855
vt 0.867304 0.133497
vt 0.860348 0.149784
vt 0.865053 0.133049
vt 0.855293 0.147606
vt 0.862933 0.132135
vt 0.850744 0.144404
vt 0.861026 0.130793
vt 0.846875 0.140302
vt 0.859403 0.129072
vt 0.843835 0.135456
vt 0.858128 0.127040
vt 0.841741 0.130053
vt 0.857250 0.124774
vt 0.840673 0.124300
vt 0.856803 0.122362
vt 0.840673 0.118420
vt 0.856803 0.119896
vt 0.841741 0.112637
vt 0.857250 0.117471
vt 0.843835 0.107174
vt 0.858128 0.115180
vt 0.846875 0.102241
vt 0.859403 0.113112
s 1
usemtl Material.006
f 131/131/35 132/132/35 134/133/35
f 131/131/35 133/134/35 132/132/35
f 135/135/35 131/131/35 134/133/35
f 137/136/35 135/135/35 136/137/35
f 135/135/35 134/133/35 136/137/35
f 139/138/35 137/136/35 138/139/35
f 137/136/35 136/137/35 138/139/35
f 141/140/35 139/138/35 140/141/35
f 139/138/35 138/139/35 140/141/35
f 142/142/35 141/140/35 143/143/35
f 141/140/35 140/141/35 143/143/35
f 142/142/35 143/143/35 144/144/35
f 145/145/35 144/144/35 146/146/35
f 145/145/35 142/142/35 144/144/35
f 147/147/35 145/145/35 146/146/35
f 147/147/35 146/146/35 148/148/35
f 149/149/35 148/148/35 150/150/35
f 149/149/35 147/147/35 148/148/35
f 151/151/35 149/149/35 150/150/35
f 151/151/35 150/150/35 152/152/35
f 153/153/35 151/151/35 152/152/35
f 153/153/35 152/152/35 154/154/35
f 155/155/35 153/153/35 154/154/35
f 155/155/35 154/154/35 156/156/35
f 157/157/35 155/155/35 156/156/35
f 157/157/35 156/156/35 158/158/35
f 159/159/35 157/157/35 158/158/35
f 159/159/35 158/158/35 160/160/35
f 161/161/35 159/159/35 160/160/35
f 161/161/35 160/160/35 162/162/35
f 163/163/35 162/162/35 164/164/35
f 163/163/35 161/161/35 162/162/35
f 165/165/35 164/164/35 166/166/35
f 165/165/35 163/163/35 164/164/35
f 167/167/35 166/166/35 168/168/35
f 167/167/35 165/165/35 166/166/35
f 169/169/35 167/167/35 168/168/35
f 169/169/35 168/168/35 170/170/35
f 171/171/35 169/169/35 170/170/35
f 171/171/35 170/170/35 172/172/35
f 173/173/35 172/172/35 174/174/35
f 173/173/35 171/171/35 172/172/35
f 175/175/35 174/174/35 176/176/35
f 175/175/35 173/173/35 174/174/35
f 177/177/35 175/175/35 176/176/35
f 177/177/35 176/176/35 178/178/35
f 179/179/35 178/178/35 180/180/35
f 179/179/35 177/177/35 178/178/35
f 181/181/35 179/179/35 180/180/35
f 181/181/35 180/180/35 182/182/35
f 183/183/35 181/181/35 182/182/35
f 183/183/35 182/182/35 184/184/35
f 185/185/35 183/183/35 184/184/35
f 185/185/35 184/184/35 186/186/35
f 187/187/35 185/185/35 186/186/35
f 187/187/35 186/186/35 188/188/35
f 189/189/35 187/187/35 188/188/35
f 189/189/35 188/188/35 190/190/35
f 191/191/35 189/189/35 190/190/35
f 191/191/35 190/190/35 192/192/35
f 193/193/35 192/192/35 194/194/35
f 193/193/35 191/191/35 192/192/35
f 133/134/35 194/194/35 132/132/35
f 133/134/35 193/193/35 194/194/35
